#!OML:ASF E:\motion texture\Top Level 1\Subject 1\Session 1\male.ASF
:FULLY-SPECIFIED
:DEGREES
396
root -16.8327 17.778 4.68958 210.722 -97.6366 -201.89
lowerback 2.0403 2.20246 4.23579
upperback 1.0508 2.93042 4.11795
thorax -0.0644643 1.43051 1.79936
lowerneck -17.5574 -6.68798 -7.22121
upperneck 12.4409 -8.35658 6.45931
head 7.26647 -3.78667 2.30208
rclavicle 1.8487e-014 9.54166e-015
rhumerus 3.68795 22.4802 -60.7541
rradius 76.1214
rwrist -36.2871
rhand 23.2284 -34.5459
rfingers 7.12502
rthumb 47.5298 -56.9752
lclavicle 1.8487e-014 9.54166e-015
lhumerus -21.1228 6.4009 80.0698
lradius 41.0572
lwrist -24.3688
lhand -25.2492 21.2362
lfingers 7.12502
lthumb 1.27091 51.2121
rfemur -31.5514 -2.42318 19.6087
rtibia 21.4628
rfoot -1.00177 -18.3205
rtoes 16.5571
lfemur -10.749 -8.05488 -13.1469
ltibia 39.778
lfoot -5.69098 -14.8626
ltoes -11.7103
397
root -16.9826 17.7925 4.64256 211.154 -98.1298 -202.4
lowerback 2.08847 2.36669 4.54236
upperback 1.03472 3.15593 4.15828
thorax -0.0932798 1.54199 1.66453
lowerneck -17.4645 -6.89238 -7.38986
upperneck 12.5144 -8.61938 6.5442
head 7.30502 -3.91403 2.32426
rclavicle 1.39149e-015 -1.90833e-014
rhumerus 5.47293 21.8691 -59.8003
rradius 75.4033
rwrist -36.2454
rhand 22.5111 -34.7516
rfingers 7.12502
rthumb 46.8668 -57.4763
lclavicle 1.39149e-015 -1.90833e-014
lhumerus -20.9773 7.86161 79.2572
lradius 39.9872
lwrist -24.4293
lhand -24.9571 21.5168
lfingers 7.12502
lthumb 1.55304 51.4909
rfemur -31.1105 -2.50179 20.1107
rtibia 21.7585
rfoot -1.02179 -18.1608
rtoes 17.0914
lfemur -11.4244 -8.32231 -12.5561
ltibia 40.9159
lfoot -5.03921 -14.8229
ltoes -12.6158
398
root -17.1324 17.8078 4.59631 211.564 -98.6107 -202.889
lowerback 2.13213 2.52719 4.84719
upperback 1.01313 3.37682 4.19822
thorax -0.123298 1.65093 1.53057
lowerneck -17.3682 -7.08913 -7.55038
upperneck 12.5914 -8.87405 6.624
head 7.34361 -4.03764 2.34437
rclavicle -5.96354e-016 2.22639e-014
rhumerus 7.26222 21.188 -58.9068
rradius 74.5808
rwrist -36.1556
rhand 21.702 -35.0647
rfingers 7.12502
rthumb 46.1172 -58.1103
lclavicle -5.96354e-016 2.22639e-014
lhumerus -20.8636 9.2834 78.458
lradius 38.9252
lwrist -24.5564
lhand -24.6635 21.7641
lfingers 7.12502
lthumb 1.8366 51.7359
rfemur -30.6509 -2.57381 20.6126
rtibia 22.0252
rfoot -1.07191 -18.0062
rtoes 17.5849
lfemur -12.1338 -8.58959 -11.9755
ltibia 42.0359
lfoot -4.44209 -14.7336
ltoes -13.5175
399
root -17.2821 17.8238 4.5509 211.962 -99.0764 -203.368
lowerback 2.17324 2.68452 5.14929
upperback 0.987593 3.59384 4.23755
thorax -0.154172 1.7577 1.39778
lowerneck -17.2705 -7.27824 -7.70246
upperneck 12.6723 -9.12059 6.69917
head 7.38268 -4.15739 2.36248
rclavicle -3.63776e-014 2.22639e-014
rhumerus 9.047 20.4452 -58.0814
rradius 73.6568
rwrist -36.0096
rhand 20.8129 -35.4809
rfingers 7.12502
rthumb 45.2916 -58.8646
lclavicle -3.63776e-014 2.22639e-014
lhumerus -20.7865 10.6598 77.6708
lradius 37.8794
lwrist -24.7369
lhand -24.3675 21.9861
lfingers 7.12502
lthumb 2.12247 51.9553
rfemur -30.1676 -2.63644 21.1137
rtibia 22.2574
rfoot -1.15435 -17.8567
rtoes 18.0302
lfemur -12.8669 -8.85171 -11.4066
ltibia 43.1269
lfoot -3.90419 -14.5998
ltoes -14.406
400
root -17.4316 17.8404 4.50646 212.35 -99.5269 -203.841
lowerback 2.2115 2.83847 5.44793
upperback 0.958074 3.80666 4.27665
thorax -0.185912 1.86212 1.26701
lowerneck -17.1699 -7.45964 -7.84649
upperneck 12.7554 -9.35886 6.76997
head 7.42131 -4.27326 2.37885
rclavicle -2.68359e-014 -1.11319e-014
rhumerus 10.8162 19.6507 -57.3306
rradius 72.6377
rwrist -35.8013
rhand 19.8448 -35.9935
rfingers 7.12502
rthumb 44.3905 -59.7292
lclavicle -2.68359e-014 -1.11319e-014
lhumerus -20.7479 11.9898 76.8949
lradius 36.8515
lwrist -24.965
lhand -24.0741 22.1765
lfingers 7.12502
lthumb 2.40575 52.1427
rfemur -29.6606 -2.68867 21.6122
rtibia 22.4518
rfoot -1.26739 -17.7127
rtoes 18.4209
lfemur -13.6201 -9.10751 -10.8505
ltibia 44.1813
lfoot -3.43158 -14.4242
ltoes -15.2831
401
root -17.5809 17.8575 4.46309 212.724 -99.9619 -204.301
lowerback 2.24552 2.98864 5.74281
upperback 0.926016 4.01452 4.31417
thorax -0.216311 1.96386 1.13717
lowerneck -17.07 -7.63299 -7.98252
upperneck 12.8401 -9.58848 6.83893
head 7.46001 -4.38477 2.39428
rclavicle 3.45885e-014 1.43125e-014
rhumerus 12.5655 18.8136 -56.6587
rradius 71.5283
rwrist -35.5263
rhand 18.7977 -36.596
rfingers 7.12502
rthumb 43.4135 -60.6942
lclavicle 3.45885e-014 1.43125e-014
lhumerus -20.7473 13.2691 76.1285
lradius 35.8457
lwrist -25.2328
lhand -23.7787 22.3398
lfingers 7.12502
lthumb 2.69106 52.3026
rfemur -29.1316 -2.73236 22.1054
rtibia 22.6078
rfoot -1.40998 -17.5738
rtoes 18.7545
lfemur -14.3903 -9.35704 -10.3101
ltibia 45.1913
lfoot -3.02497 -14.2066
ltoes -16.1281
402
root -17.7298 17.875 4.42087 213.086 -100.382 -204.749
lowerback 2.27705 3.13514 6.03234
upperback 0.889249 4.21786 4.35077
thorax -0.248838 2.06307 1.00967
lowerneck -16.9691 -7.79912 -8.10989
upperneck 12.9263 -9.81036 6.90354
head 7.49826 -4.49259 2.40781
rclavicle 1.98785e-015 3.65764e-014
rhumerus 14.2823 17.9461 -56.067
rradius 70.3396
rwrist -35.1808
rhand 17.6769 -37.2755
rfingers 7.12502
rthumb 42.3651 -61.742
lclavicle 1.98785e-015 3.65764e-014
lhumerus -20.7903 14.4939 75.3716
lradius 34.8667
lwrist -25.5346
lhand -23.4838 22.4697
lfingers 7.12502
lthumb 2.97587 52.4287
rfemur -28.5826 -2.76708 22.592
rtibia 22.7245
rfoot -1.57812 -17.4408
rtoes 19.0296
lfemur -15.176 -9.59863 -9.78597
ltibia 46.1508
lfoot -2.68806 -13.9488
ltoes -16.95
403
root -17.8784 17.8929 4.37987 213.438 -100.786 -205.187
lowerback 2.30521 3.2778 6.31625
upperback 0.848593 4.41629 4.3856
thorax -0.282244 2.15958 0.883864
lowerneck -16.8689 -7.95781 -8.2275
upperneck 13.0136 -10.0243 6.96372
head 7.53602 -4.59652 2.41925
rclavicle -9.74045e-015 -4.29375e-014
rhumerus 15.96 17.0571 -55.5595
rradius 69.0809
rwrist -34.7606
rhand 16.4911 -38.0194
rfingers 7.12502
rthumb 41.2533 -62.8547
lclavicle -9.74045e-015 -4.29375e-014
lhumerus -20.8773 15.6615 74.623
lradius 33.9185
lwrist -25.8604
lhand -23.182 22.5787
lfingers 7.12502
lthumb 3.26736 52.5334
rfemur -28.0154 -2.7933 23.0705
rtibia 22.8032
rfoot -1.76964 -17.315
rtoes 19.2635
lfemur -15.9729 -9.83023 -9.2796
ltibia 47.0519
lfoot -2.42272 -13.6516
ltoes -17.7459
404
root -18.0266 17.911 4.34018 213.78 -101.174 -205.613
lowerback 2.32953 3.41694 6.59417
upperback 0.804355 4.61017 4.4181
thorax -0.316038 2.25357 0.759435
lowerneck -16.7657 -8.10869 -8.3373
upperneck 13.098 -10.2299 7.02345
head 7.57164 -4.6963 2.43041
rclavicle -6.55989e-014 -4.92986e-014
rhumerus 17.5908 16.1557 -55.1347
rradius 67.7631
rwrist -34.2619
rhand 15.253 -38.8116
rfingers 7.12502
rthumb 40.0898 -64.0105
lclavicle -6.55989e-014 -4.92986e-014
lhumerus -21.0096 16.7691 73.8827
lradius 33.003
lwrist -26.2049
lhand -22.8785 22.6602
lfingers 7.12502
lthumb 3.56047 52.6102
rfemur -27.4318 -2.81425 23.5403
rtibia 22.8454
rfoot -1.98195 -17.1973
rtoes 19.4559
lfemur -16.7772 -10.0506 -8.7928
ltibia 47.8882
lfoot -2.22707 -13.3166
ltoes -18.504
405
root -18.1744 17.9293 4.30183 214.113 -101.544 -206.029
lowerback 2.34939 3.55268 6.86358
upperback 0.757314 4.79946 4.44842
thorax -0.349396 2.34508 0.637992
lowerneck -16.6623 -8.25214 -8.43909
upperneck 13.1803 -10.4274 7.08118
head 7.60573 -4.792 2.44069
rclavicle 4.07509e-014 6.36111e-015
rhumerus 19.1694 15.2517 -54.7912
rradius 66.3971
rwrist -33.6857
rhand 13.9487 -39.6329
rfingers 7.12502
rthumb 38.8611 -65.1925
lclavicle 4.07509e-014 6.36111e-015
lhumerus -21.1879 17.8191 73.1505
lradius 32.1218
lwrist -26.5632
lhand -22.5689 22.7161
lfingers 7.12502
lthumb 3.85945 52.6609
rfemur -26.8332 -2.83082 24.0016
rtibia 22.8557
rfoot -2.21326 -17.0833
rtoes 19.5869
lfemur -17.5826 -10.2565 -8.32761
ltibia 48.651
lfoot -2.10002 -12.9438
ltoes -19.2203
